<?xml version="1.0" encoding="UTF-8"?>
<svg id="Layer_2" data-name="Layer 2" xmlns="http://www.w3.org/2000/svg" viewBox="0 0 923.403 507.4">
  <defs>
    <radialGradient id="RadialGradient1" gradientUnits="userSpaceOnUse" cx="50%" cy="90%" r="58%">
      <stop offset="70%" stop-color="#cf7280" />
      <stop offset="70%" stop-color="#eedf77" />
      <stop offset="80%" stop-color="#eedf77" />
      <stop offset="80%" stop-color="white" />
      <stop offset="90%" stop-color="white" />
      <stop offset="90%" stop-color="#7ac1e0" />
      <stop offset="100%" stop-color="#7ac1e0" />
      <stop offset="100%" stop-color="#3aaf7d" />
    </radialGradient>
  </defs>
  <g id="Layer_0" data-name="Layer 0">
    <path d="M288.002,444.4c9.9,0,19.2-2.4,27.3-6.7,3.4,3.8,8.2,6.2,13.7,6.2,10.1,0,18.3-8.2,18.3-18.3v-80.9c0-10.1-8.2-18.3-18.3-18.3s-13.7,6.2-13.7,6.2c-8.2-4.3-17.5-6.7-27.3-6.7-32.7,0-59.3,26.6-59.3,59.3s26.6,59.3,59.3,59.3v-.1ZM288.002,362.4c12.5,0,22.7,10.2,22.7,22.7s-10.2,22.7-22.7,22.7-22.7-10.2-22.7-22.7,10.2-22.7,22.7-22.7ZM382.202,280.2c-10.4.2-19.4-9.6-18.2-20,1-7.7,3.8-10,10.3-16,4.9-4.6,12.6-11.9,17.5-16.6,3.3-3,5.1-5.4,8.8-7.4,5.6-3,12.8-2.8,18.2.6,4.6,2.8,7.8,7.8,8.5,13.1.1.8.1,1.6.2,2.4v171.4h8c3.4,0,6.5,1,9.2,2.6,5.6,3.3,9.2,9.6,8.9,16.6-.3,9.7-8.7,17.6-18.3,17.5h-43.5c-4.9-.1-8.2.4-12.6-.4-8.7-1.9-15-9.9-14.4-19,.3-6.6,4.5-12.7,10.4-15.5,4.2-2.3,10.8-1.8,15.3-1.8.9.3,0-89.9.4-121v-8.6c-2.5,1.3-5.6,2.2-8.5,2.1h-.2,0ZM485.002,280.2c-10.4.2-19.4-9.6-18.2-20,.9-7.5,4-10.3,10.3-16,6.8-6.4,15.8-15.1,22.6-21.5,7.5-7.2,20.9-5.9,27,2.6,2.3,3,3.6,6.8,3.7,10.6.3,2.1-.5,170.6.3,171.8h8.3c9.9.4,17.9,8.9,17.5,19.1-.3,7-4.7,13.3-11,16-2.2,1-5,1.5-7.4,1.5h-53.1c-10.7-.4-18.9-10.3-17.3-21,1.2-8.6,8.8-15.4,17.5-15.6h8.4v-129.6c-2.6,1.3-5.6,2.1-8.5,2.1h-.2.1ZM684.802,342.6v96c0,35.2-28.6,63.8-63.8,63.8H247.002c-10.1,0-18.3-8.2-18.3-18.3s8.2-18.3,18.3-18.3h374c14.6,0,26.5-11.5,27.1-25.9-7,2.9-14.6,4.5-22.6,4.5-32.7,0-59.3-26.6-59.3-59.3v-42.4c0-10.1,8.2-18.3,18.3-18.3s18.3,8.2,18.3,18.3v42.4c0,12.5,10.2,22.7,22.7,22.7s22.7-10.2,22.7-22.7v-42.4c0-10.1,8.2-18.3,18.3-18.3s18.3,8.2,18.3,18.3h0v-.1Z" fill="#A7D" stroke="#585858" stroke-linecap="round" stroke-linejoin="round" stroke-width="10"/>
    <path d="M248.002,365.4c1.1-2.9,3.2-7.4,7.3-12,4-4.4,8.1-6.8,10.9-8.2" fill="none" stroke="#585858" stroke-linecap="round" stroke-linejoin="round" stroke-width="5"/>
    <path d="M379.202,257.4c8.3-7.8,16.5-15.5,24.8-23.3" fill="none" stroke="#585858" stroke-linecap="round" stroke-linejoin="round" stroke-width="5"/>
    <path d="M482.402,257.4c8.3-7.8,16.5-15.5,24.8-23.3" fill="none" stroke="#585858" stroke-linecap="round" stroke-linejoin="round" stroke-width="5"/>
    <path d="M578.102,348.1v-6.8c0-2.7,2.2-4.9,4.9-4.9h0" fill="none" stroke="#585858" stroke-linecap="round" stroke-linejoin="round" stroke-width="5"/>
    <path d="M253.902,477.5h-6.8c-2.7,0-4.9,2.2-4.9,4.9h0" fill="none" stroke="#585858" stroke-linecap="round" stroke-linejoin="round" stroke-width="5"/>
    <path d="M659.802,348.1v-6.8c0-2.7,2.2-4.9,4.9-4.9h0" fill="none" stroke="#585858" stroke-linecap="round" stroke-linejoin="round" stroke-width="5"/>
  </g>
  <g id="Layer_2-2" data-name="Layer 2">
    <path d="M918.393,382.179v.16c-.48,27.98-14.32,52.89-28.81,68.23-4.82,5.1-11.31,7.68-17.82,7.68-6.04,0-12.08-2.22-16.82-6.69-4.99-4.72-7.57-11.04-7.67-17.41v-.53c0-.38.01-.77.03-1.15.02-.49.06-.99.12-1.48.09-.79.21-1.58.38-2.36,0-.01,0-.02.01-.03.36-1.69.9-3.34,1.62-4.93.18-.4.38-.8.58-1.19.18-.34.36-.68.56-1.02.19-.33.39-.66.6-.99.21-.32.42-.64.65-.96.64-.9,1.35-1.76,2.13-2.59.17-.18.45-.48.83-.91.11-.12.22-.25.33-.38.16-.19.34-.39.53-.62.12-.14.25-.3.38-.46.02-.02.04-.05.05-.07.24-.28.49-.59.74-.92.22-.27.44-.55.66-.85.15-.19.31-.4.46-.61.33-.44.67-.9,1.02-1.4.14-.19.27-.39.41-.59.41-.6.83-1.23,1.26-1.89.11-.18.23-.36.34-.54,4.92-7.84,10.18-19.82,7.92-33-3.93-22.97-28.95-40.97-54.63-39.35-26.47,1.68-44.05,21.01-47.14,38.34-2.45,13.7,2.93,25.82,7.83,33.51.03.06.06.11.1.17.19.31.38.62.59.91.15.24.31.48.47.71.32.48.64.93.96,1.36.15.22.31.44.47.65.15.21.3.41.46.61.29.38.57.75.84,1.08.28.36.55.68.8.98.27.33.52.63.75.88.22.26.42.48.59.67.19.21.34.37.44.48.16.16.31.33.46.5.17.19.35.39.51.59.22.25.42.5.61.75.16.19.3.39.44.59.08.09.14.18.2.27.1.14.2.28.29.42.16.22.31.44.45.67.18.28.36.58.52.87.26.43.49.86.7,1.3.12.23.23.47.34.71.56,1.19,1,2.43,1.34,3.69.07.22.13.45.18.68.06.25.12.5.17.75.07.31.13.62.18.94.02.04.02.09.02.13.05.3.09.6.13.91.05.33.08.66.11,1,.12,1.23.13,2.47.04,3.7-.37,5.94-2.9,11.75-7.55,16.17-9.8,9.32-25.31,8.94-34.64-.87-5.92-6.22-35.06-39.55-27.04-84.4,1-5.6,2.56-11.07,4.61-16.36-6.39-2.3-11.81-7.22-14.5-14.04-6.8-17.22-15.62-33.6-26.21-48.68-13.68-19.49-30.24-36.77-49.23-51.37-1.05-.8-2.01-1.68-2.89-2.61-4.84.84-9.89,1.29-14.96,1.29-6.84,0-13.7-.77-20.04-2.28-16.27-3.89-31.02-13.14-42.66-26.75-4.82-5.64-9-11.92-12.48-18.7-3.91,2.66-8.6,4.18-13.51,4.18-1.65,0-3.32-.17-5-.53-12.99-2.74-21.3-15.51-18.55-28.5l10.37-49.05-28.33,31.44c-4.56,5.06-11.05,7.95-17.87,7.95s-13.29-2.88-17.85-7.93l-33.16-36.71,6.99,49.9c1.84,13.16-7.33,25.32-20.49,27.16-.7.1-1.41.16-2.11.19-1.42.82-2.94,1.51-4.56,2.04-20.71,6.8-41.17,15.01-60.83,24.38-16.7,7.96-33.16,16.94-48.91,26.66-1.23.76-2.5,1.38-3.8,1.9-.89,1.59-1.97,3.1-3.25,4.51-4.83,5.31-11.46,8-18.12,8-5.89,0-11.79-2.11-16.49-6.38l-20.74-18.89c-6.53,6.71-12.59,13.43-18.16,20.12l19.03,9.91c12,6.25,16.66,21.05,10.41,33.05-4.24,8.15-12.44,12.91-21.02,13.16,3.72,4.95,5.53,11.24,4.76,17.67-1.26,10.43-9.03,18.9-19.31,21.05l-64.98,13.57,58.27,34.52c3.38,2,6.14,4.73,8.16,7.9,3.01,4.71,4.37,10.4,3.67,16.12-.09.82-.23,1.64-.42,2.46-2.35,10.36-11.11,18.04-21.69,19l-151.31,13.71c-.76.07-1.5.1-2.24.1-12.21,0-22.66-9.08-24.26-21.31-.04-.32-.08-.65-.11-.98-1.23-13.48,8.71-25.39,22.18-26.61l7.47-.68,68.35-6.19-47.32-28.04c-6.7-3.96-10.98-10.77-11.84-18.24-.27-2.24-.22-4.55.16-6.85.63-3.75,2.09-7.22,4.21-10.19,3.5-4.92,8.78-8.49,14.95-9.78l55.8-11.66-61.8-29.56c-8.04-3.85-13.03-11.52-13.82-19.81-.41-4.27.3-8.71,2.29-12.87,4.2-8.76,12.93-13.9,22.04-13.93,2.93,0,5.91.51,8.78,1.61-5.63-4.7-8.78-11.65-8.79-18.8,0-.52.02-1.03.05-1.55.02-.41.06-.83.11-1.24.01-.06.02-.12.02-.18.05-.41.11-.82.18-1.22.06-.33.13-.67.2-1,.13-.59.28-1.17.45-1.76.18-.6.39-1.2.62-1.8.15-.4.31-.8.49-1.19.21-.46.43-.92.66-1.37,6.24-12,21.04-16.66,33.04-10.41l58.22,30.31c.3-.38.6-.77.91-1.15.3-.39.61-.78.91-1.16,7.4-9.27,15.56-18.53,24.44-27.74l-41.35-37.66c-5.18-4.71-7.88-11.14-8-17.63-.01-.02-.01-.05,0-.07-.05-2.6.32-5.22,1.11-7.73.14-.47.3-.92.47-1.38.27-.7.56-1.39.9-2.07,1-2.03,2.3-3.97,3.9-5.73,9.11-10,24.6-10.73,34.61-1.62l9.43,8.59,42.26,38.49s31.23,28.44,31.24,28.45c.89-.55,1.78-1.09,2.68-1.63.42-.25.83-.5,1.25-.74,1.24-.76,2.48-1.5,3.73-2.24,6.73-3.98,13.56-7.83,20.47-11.54l-36.88-76.72c-9.05,5.34-17.9,11.04-26.45,17.08-4.2,2.96-9.01,4.4-13.79,4.44-7.69.06-15.29-3.52-20.07-10.29-3.15-4.46-4.58-9.62-4.43-14.69l.03-.72c.02-.28.04-.57.07-.85.01-.19.03-.38.06-.57.01-.07.01-.14.03-.21.03-.27.07-.55.11-.82.01-.03.01-.07.02-.1.25-1.57.67-3.11,1.24-4.61.27-.74.58-1.47.94-2.18.35-.72.74-1.42,1.17-2.11.22-.36.46-.72.71-1.07.21-.31.43-.61.66-.91.11-.14.22-.28.33-.42.46-.57.95-1.13,1.47-1.66.17-.18.35-.35.53-.53.28-.27.58-.54.88-.8.26-.24.53-.47.81-.69.02-.02.04-.04.07-.05.37-.3.76-.59,1.15-.87,3.94-2.78,7.93-5.49,11.97-8.14.64-.42,1.28-.84,1.93-1.26.65-.43,1.31-.86,1.97-1.28,2.15-1.38,4.32-2.74,6.49-4.09,1.09-.67,2.18-1.34,3.27-2,1.1-.66,2.19-1.31,3.29-1.97,5.49-3.26,11.06-6.4,16.68-9.4.46-.25.93-.5,1.4-.75,1.44-.76,2.88-1.52,4.33-2.27.35-.18.69-.36,1.04-.54,1.2-.62,2.41-1.23,3.62-1.84,1.21-.6,2.42-1.2,3.64-1.8,1.21-.6,2.43-1.19,3.65-1.77,1.22-.59,2.45-1.17,3.68-1.74,1.02-.48,2.04-.95,3.06-1.42,1.97-.9,3.95-1.79,5.94-2.66,1.95-.86,3.91-1.71,5.88-2.54,5-2.12,10.04-4.14,15.11-6.06,2.46-.94,4.93-1.85,7.41-2.74.07-.03.14-.06.21-.08,2.43-.87,4.86-1.72,7.3-2.54.12-.05.25-.09.37-.13,4.48-1.51,9.09-1.64,13.37-.62.05.01.1.02.15.04,6.45,1.57,12.13,5.75,15.46,11.77.12.19.23.38.32.58.58,1.1,1.08,2.26,1.49,3.48,4.3,12.71-2.53,26.5-15.24,30.79-10.13,3.42-20.16,7.3-30.01,11.56l20.23,42.09,16.84,35.05s.16.34.17.35l.08.17c.07-.03.14-.06.21-.09,4.15-1.78,8.32-3.52,12.52-5.2.91-.36,1.82-.72,2.73-1.08,1.97-.79,3.94-1.55,5.92-2.3,2.02-.78,4.05-1.55,6.09-2.3,1.46-.55,2.93-1.08,4.4-1.61,2.22-.8,4.45-1.59,6.68-2.36l-14.96-106.85c-.11-.78-.18-1.55-.21-2.33,0-.4-.01-.81-.01-1.21,0-.27,0-.55.02-.82.01-.58.06-1.16.13-1.73.06-.51.13-1.02.22-1.52.24-1.36.6-2.68,1.08-3.96.13-.35.26-.7.41-1.05,1-2.42,2.41-4.66,4.15-6.63.18-.21.37-.42.57-.62.18-.2.37-.4.57-.59.15-.16.31-.31.48-.46.37-.35.75-.69,1.15-1.01.33-.27.67-.53,1.01-.79.69-.5,1.4-.97,2.14-1.4.37-.22.75-.42,1.14-.62.26-.14.52-.27.79-.39.51-.24,1.02-.46,1.54-.66.52-.19,1.04-.38,1.56-.54.53-.16,1.06-.31,1.6-.43.53-.13,1.06-.23,1.6-.32.43-.07.86-.12,1.29-.17.38-.04.77-.07,1.15-.1.11,0,.22-.01.34-.01.35-.02.7-.03,1.05-.03,1.26,0,2.51.1,3.76.29.81.13,1.62.3,2.42.51,1.64.43,3.23,1.03,4.76,1.81.34.18.69.36,1.02.56,1.82,1.02,3.51,2.3,5.03,3.82.31.3.61.62.9.94l.51.56.31.34.38.42.97,1.08.9.99.33.37.71.78.37.41.79.88,1.29,1.43,2.4,2.65,1.04,1.16,2.21,2.44,1.16,1.29,9.93,10.99,1.18,1.32,2.85,3.15,1.44,1.6.72.8,4.38,4.85,22.12,24.49,2.33,2.58,1.11,1.23,2.08,2.3.98,1.08,1.8,2,1.53,1.68,2.01,2.22.03-.03.13-.14.22-.25.32-.35.38-.42.06-.06.46-.52.89-.99.33-.37.73-.81,2.14-2.37.9-.99,3.36-3.74,1.2-1.33,3.9-4.33,1.39-1.54,2.88-3.2,3.01-3.34,1.55-1.72,3.15-3.49,1.6-1.78,1.61-1.79,12.21-13.55,3.18-3.53,3.86-4.29,3.7-4.1,1.76-1.96,1.71-1.89,3.21-3.56.6-.67,1.74-1.93,2.11-2.34.97-1.07,1.32-1.47.79-.88,3-3.32c.07-.08.15-.16.22-.24s.14-.15.21-.23l.36-.36c.05-.06.12-.12.18-.18,3.97-3.94,9.09-6.27,14.41-6.82.11-.01.22-.02.32-.03,4.4-.4,8.93.41,13.08,2.52,2.8,1.42,5.21,3.34,7.18,5.6.39.43.75.87,1.1,1.33,2.46,3.27,4.06,7.12,4.63,11.19.03.24.06.47.09.7.04.46.07.92.09,1.39,0,.06.01.12.01.18.04.8.05,1.59,0,2.39-.07,1.21-.23,2.42-.48,3.63l-20.21,95.59c3.5.71,6.77,2.2,9.59,4.32,1.15.85,2.22,1.81,3.18,2.86.18.18.34.35.5.54,2.64,3.02,4.57,6.75,5.44,10.98.23,1.12.5,2.26.82,3.39.3,1.12.65,2.25,1.04,3.37.16.49.33.97.52,1.46.06.16.12.32.18.49.15.4.31.79.47,1.19.06.13.11.27.17.41.13.3.26.61.39.91.18.41.36.82.55,1.22.18.41.38.81.58,1.21.12.26.25.51.39.77.16.33.33.65.51.97.2.39.41.77.64,1.16.24.44.49.87.76,1.3.03.06.07.13.11.19.29.49.59.97.91,1.44.93,1.44,1.93,2.83,3.01,4.17.35.45.72.89,1.1,1.33.5.6,1.03,1.18,1.58,1.75.3.33.62.65.94.96.25.26.51.51.78.75,5.01,4.73,11.04,8.14,17.91,9.26,12.64,2.07,29.13-8.82,19.62-22.42-5.99-8.56-16.11-12.85-23.66-19.74-8.77-8.01-15.39-17.89-19.02-29.23-1.15-3.59-3.28-11.56-3.41-21.4v-1.24c0-.08-.01-.16,0-.24.02-4.23.44-8.77,1.46-13.43,1.42-6.52,4.02-13.28,8.41-19.77.03-.04.06-.08.09-.12.02-.05.06-.09.09-.13.19-.29.39-.58.6-.87,3.09-4.34,6.59-7.95,10.29-10.95,7.35-5.98,15.5-9.53,22.81-11.65.03-.01.07-.02.1-.03,8.57-2.47,15.97-2.95,19.61-3.02,11.49-.22,22.79,2.54,33.33,7.84,20.989,10.651,34.653,26.62,44.541,48.174,1.828,4.143,3.831,8.137,4.149,12.776.88,10.24-4.95,20.27-14.98,24.3-12.31,4.94-26.29-1.03-31.23-13.34-6.31-15.73-16.62-32.09-35.83-31.98-5.32.03-10.84,2.36-13.61,6.89-3.17,5.21-2.05,12.16,1.2,17.32,6.19,9.81,17.72,14.28,25.89,22.04,6.54,6.19,11.72,13.53,15.15,21.74.78,1.83,1.46,3.7,2.04,5.62.01.01.02.02.01.03.08.24.16.49.23.74.07.24.14.48.21.73.55,1.94,1.35,5.26,1.9,9.51.33,2.51.56,5.35.59,8.42.01.04.01.08,0,.12.01.22.01.45.01.68,0,9.12-1.79,20.16-8.09,30.75,4.46,3.77,8.8,7.67,13.01,11.71,5.47,5.22,10.73,10.66,15.75,16.3,1.86,2.08,3.69,4.2,5.49,6.34,2.04-1.71,4.08-3.41,6.13-5.12,5.74-4.77,11.5-9.52,17.26-14.22.25-.21.5-.42.75-.62,1.42-1.16,2.84-2.32,4.26-3.47,1.64-1.33,3.28-2.66,4.92-3.99,1.77-1.42,3.54-2.85,5.31-4.27,9.78-7.86,19.68-15.67,29.59-23.38-8.37-8.84-15.32-15.15-24.79-22.8-10.902-8.8-11.993-25.582-2.448-35.844,5.779-6.212,14.992-9.062,23.23-7.034,9.315,2.292,14.241,7.849,21.168,13.998.89.79,1.77,1.59,2.64,2.4.76.7,1.51,1.4,2.27,2.11,2.43,2.28,4.82,4.59,7.17,6.94,1.18,1.17,2.34,2.36,3.5,3.55s2.31,2.39,3.45,3.6c1.14,1.21,2.27,2.43,3.39,3.66,3.36,3.67,6.63,7.43,9.81,11.25,1.15,1.39,2.3,2.79,3.43,4.2,1.14,1.41,2.26,2.83,3.37,4.26,1.09,1.4,2.17,2.82,3.23,4.24.08.09.15.19.22.29.91,1.21,1.81,2.44,2.7,3.67.39.52.76,1.04,1.12,1.56.49.67.97,1.34,1.43,2.01.6.82,1.18,1.66,1.75,2.49.4.57.79,1.13,1.16,1.7.62.89,1.22,1.78,1.82,2.68.18.26.36.53.53.8.75,1.13,1.5,2.27,2.23,3.41.87,1.33,1.72,2.67,2.56,4.02,1.69,2.69,3.33,5.41,4.93,8.15.8,1.38,1.59,2.75,2.38,4.14.74,1.31,1.47,2.62,2.2,3.94.08.15.17.3.25.46,1.47,2.69,2.9,5.4,4.28,8.13.86,1.67,1.69,3.34,2.51,5.02.54,1.11,1.08,2.23,1.62,3.36.77,1.64,1.54,3.29,2.29,4.95.03.07.06.13.08.2.15.31.28.62.4.94.04.1.09.21.12.32.12.31.24.62.34.94.13.37.24.74.34,1.12.07.22.13.45.18.67.07.27.13.55.19.82.09.43.17.85.24,1.28.07.42.12.85.17,1.27.04.43.07.85.1,1.28.51,9.77-4.9,19.31-14.35,23.59-3.29,1.49-6.72,2.2-10.11,2.2-9.32,0-18.22-5.35-22.33-14.39-5.85-12.91-12.67-25.31-20.39-37.11-13.2,10.27-26.38,20.74-39.32,31.24-10.36,8.42-20.77,17.02-31.05,25.66,5.82,10.07,11.02,20.51,15.58,31.24.45-.37.9-.76,1.37-1.13,11.92-9.45,25.91-16.23,40.55-19.78l.36-.09c5.61-1.34,11.32-2.21,17.04-2.57,21.7-1.38,43.61,4.41,62.35,16.38,1.73,1.11,3.43,2.27,5.11,3.48,9.27,6.7,17.12,14.66,23.32,23.53.41.58.81,1.16,1.2,1.75.08.12.16.23.24.35.13.2.27.39.39.59.44.64.86,1.29,1.27,1.95.18.26.33.51.48.77.36.6.72,1.2,1.07,1.81,5.24,9.12,8.84,19.01,10.61,29.36.91,5.34,1.29,10.61,1.21,15.78Z" fill="url(#RadialGradient1)" stroke="#585858" stroke-linecap="round" stroke-linejoin="round" stroke-width="10"/>
    <path d="M181.697,285.625c10.328,5.173,20.655,10.346,30.983,15.519.644.323,1.288.645,1.932.968" fill="none" stroke="#585858" stroke-linecap="round" stroke-linejoin="round" stroke-width="10"/>
    <path d="M108.205,248.73c14.638,7.364,29.248,14.783,43.9,22.119" fill="none" stroke="#585858" stroke-linecap="round" stroke-linejoin="round" stroke-width="10"/>
    <path d="M78.458,233.911c4.971,2.443,9.934,4.903,14.891,7.375" fill="none" stroke="#585858" stroke-linecap="round" stroke-linejoin="round" stroke-width="10"/>
    <path d="M282.953,238.63c.86-1.818,2.645-6.246,1.795-11.849-.516-3.399-1.81-5.969-2.769-7.532" fill="none" stroke="#585858" stroke-linecap="round" stroke-linejoin="round" stroke-width="10"/>
    <line x1="262.675" y1="194.493" x2="270.461" y2="201.75" fill="none" stroke="#585858" stroke-linecap="round" stroke-linejoin="round" stroke-width="10"/>
    <path d="M384.291,174.098c.953,1.549,2.635,3.823,5.377,5.79,4.609,3.307,9.377,3.712,11.384,3.765" fill="none" stroke="#585858" stroke-linecap="round" stroke-linejoin="round" stroke-width="10"/>
    <path d="M374.779,152.591c-.554-3.43-1.107-6.859-1.661-10.289" fill="none" stroke="#585858" stroke-linecap="round" stroke-linejoin="round" stroke-width="10"/>
    <line x1="559.237" y1="129.614" x2="554.57" y2="149.562" fill="none" stroke="#585858" stroke-linecap="round" stroke-linejoin="round" stroke-width="10"/>
    <path d="M540.558,185.552c1.072-.59,2.976-1.822,4.589-4.071,1.719-2.398,2.249-4.757,2.437-5.981" fill="#ff8080" stroke="#585858" stroke-linecap="round" stroke-linejoin="round" stroke-width="10"/>
    <path d="M630.697,231.986c2.672-.578,5.757-1.451,9.076-2.798,2.249-.913,4.254-1.9,6.011-2.875" fill="#ff8080" stroke="#585858" stroke-linecap="round" stroke-linejoin="round" stroke-width="10"/>
    <path d="M666.983,211.94c1.018-1.037,2.055-2.143,3.101-3.323,1.356-1.529,2.595-3.03,3.725-4.483" fill="#ff8080" stroke="#585858" stroke-linecap="round" stroke-linejoin="round" stroke-width="10"/>
    <path d="M729.895,335.659c-1.034,1.672-2.083,3.518-3.101,5.538-1.335,2.649-2.404,5.171-3.263,7.491" fill="#ff8080" stroke="#585858" stroke-linecap="round" stroke-linejoin="round" stroke-width="10"/>
    <path d="M741.414,320.817c.997-1.296,2.102-2.632,3.323-3.988,2.429-2.695,4.86-4.953,7.134-6.831" fill="#ff8080" stroke="#585858" stroke-linecap="round" stroke-linejoin="round" stroke-width="10"/>
    <line x1="124.402" y1="348.071" x2="193.346" y2="388.916" fill="none" stroke="#585858" stroke-linecap="round" stroke-linejoin="round" stroke-width="10"/>
    <path d="M729.406,268.422c.882,1.155,1.769,2.372,2.654,3.652,1.589,2.297,2.992,4.538,4.23,6.685" fill="none" stroke="#585858" stroke-linecap="round" stroke-linejoin="round" stroke-width="10"/>
    <path d="M300.33,173.088c-3.173,1.754-6.346,3.507-9.52,5.261" fill="none" stroke="#585858" stroke-linecap="round" stroke-linejoin="round" stroke-width="10"/>
    <line x1="206.191" y1="245.989" x2="200.017" y2="242.966" fill="none" stroke="#585858" stroke-linecap="round" stroke-linejoin="round" stroke-width="10"/>
    <line x1="103.154" y1="392.436" x2="115.554" y2="391.361" fill="none" stroke="#585858" stroke-linecap="round" stroke-linejoin="round" stroke-width="10"/>
    <line x1="119.115" y1="307.679" x2="131.14" y2="305.166" fill="none" stroke="#585858" stroke-linecap="round" stroke-linejoin="round" stroke-width="10"/>
    <line x1="515.729" y1="102.861" x2="510.073" y2="129.614" fill="none" stroke="#585858" stroke-linecap="round" stroke-linejoin="round" stroke-width="10"/>
    <line x1="412.452" y1="101.42" x2="422.351" y2="113.131" fill="none" stroke="#585858" stroke-linecap="round" stroke-linejoin="round" stroke-width="10"/>
    <line x1="461.331" y1="84.099" x2="472.343" y2="96.261" fill="none" stroke="#585858" stroke-linecap="round" stroke-linejoin="round" stroke-width="10"/>
    <path d="M188.111,192.859c1.109-1.135,2.271-2.288,3.489-3.451,1.272-1.216,2.53-2.372,3.766-3.471" fill="none" stroke="#585858" stroke-linecap="round" stroke-linejoin="round" stroke-width="10"/>
    <line x1="294.057" y1="72.934" x2="301.571" y2="88.566" fill="none" stroke="#585858" stroke-linecap="round" stroke-linejoin="round" stroke-width="10"/>
    <line x1="815.381" y1="215.04" x2="797.338" y2="229.15" fill="none" stroke="#585858" stroke-linecap="round" stroke-linejoin="round" stroke-width="10"/>
  </g>
</svg>